#!OML:ASF F:\VICON\USERDATA\INSTALL\rory3\rory3.ASF
:FULLY-SPECIFIED
:DEGREES
4021
root -0.0996527 16.7358 -6.16493 5.69083 20.635 5.43897
lowerback 8.88641 -4.54276 -8.37435
upperback 0.634365 -6.72546 3.67426
thorax -2.88673 -3.24502 9.29352
lowerneck -19.6963 -5.3765 -10.7132
upperneck 20.483 -6.42539 9.02045
head 10.4741 -2.74758 4.04614
rclavicle -5.40694e-014 4.13472e-014
rhumerus -20.8385 9.39959 -82.0568
rradius 134.493
rwrist -7.88445
rhand -19.5454 26.768
rfingers 7.12502
rthumb 6.77869 -3.10346
lclavicle -5.40694e-014 4.13472e-014
lhumerus -10.1965 -10.7458 92.5141
lradius 117.286
lwrist 2.40634
lhand -4.65247 7.5599
lfingers 7.12502
lthumb 21.1273 36.4288
rfemur -41.572 1.24321 11.1013
rtibia 53.0738
rfoot -18.3792 6.35265
rtoes -7.47821
lfemur 1.75953 5.14796 -20.4504
ltibia 37.3246
lfoot -24.2291 -1.78001
ltoes -32.3004
4022
root -0.0946201 16.8016 -6.1868 5.70676 19.8172 5.43005
lowerback 9.03712 -4.57942 -8.27629
upperback 0.344316 -6.78563 3.62368
thorax -3.28292 -3.24107 9.22564
lowerneck -19.7336 -5.22709 -10.6019
upperneck 21.0219 -6.24025 8.85208
head 10.6454 -2.6739 4.00632
rclavicle 7.73272e-014 -3.57812e-014
rhumerus -22.3258 9.46152 -82.3507
rradius 134.654
rwrist -7.6065
rhand -19.4077 26.7746
rfingers 7.12502
rthumb 6.91163 -3.09253
lclavicle 7.73272e-014 -3.57812e-014
lhumerus -10.7187 -10.6845 92.3258
lradius 117.578
lwrist 2.18999
lhand -4.68417 7.62597
lfingers 7.12502
lthumb 21.0968 36.4983
rfemur -41.2281 0.584134 11.4023
rtibia 52.3936
rfoot -20.0442 3.48885
rtoes -9.65391
lfemur 1.83567 5.21669 -20.6685
ltibia 36.9412
lfoot -23.3153 -1.92604
ltoes -32.6237
4023
root -0.0926642 16.8647 -6.20886 5.77779 19.1028 5.38298
lowerback 8.62581 -4.58917 -8.2683
upperback 0.423789 -6.76549 3.64694
thorax -2.97171 -3.25377 9.1916
lowerneck -19.9638 -5.1825 -10.615
upperneck 21.1972 -6.1546 8.82661
head 10.7427 -2.6339 4.01476
rclavicle 3.37934e-014 -4.77083e-015
rhumerus -23.1474 9.3341 -82.404
rradius 134.656
rwrist -7.09349
rhand -19.4815 26.9949
rfingers 7.12502
rthumb 6.84038 -2.87455
lclavicle 3.37934e-014 -4.77083e-015
lhumerus -10.4763 -10.7223 92.0363
lradius 117.779
lwrist 1.94379
lhand -4.64012 7.63561
lfingers 7.12502
lthumb 21.1392 36.5032
rfemur -41.0202 -0.231024 11.7723
rtibia 51.8509
rfoot -21.3814 0.272278
rtoes -10.4246
lfemur 1.80222 5.19882 -20.8046
ltibia 36.5851
lfoot -22.2789 -2.20012
ltoes -32.9382
4024
root -0.0934495 16.9293 -6.2293 5.8117 18.4661 5.29404
lowerback 8.4931 -4.60449 -8.22659
upperback 0.33213 -6.77305 3.70561
thorax -2.99063 -3.2539 9.22323
lowerneck -20.0042 -5.10969 -10.7881
upperneck 21.4367 -6.03403 8.92248
head 10.8339 -2.582 4.10422
rclavicle 9.93923e-016 3.97569e-015
rhumerus -24.2011 9.32043 -82.4433
rradius 134.629
rwrist -6.4675
rhand -19.5745 27.0284
rfingers 7.12502
rthumb 6.75057 -2.84399
lclavicle 9.93923e-016 3.97569e-015
lhumerus -10.5523 -10.5558 91.8196
lradius 118.055
lwrist 1.89466
lhand -4.93603 6.97023
lfingers 7.12502
lthumb 20.8549 35.8693
rfemur -40.8283 -1.15254 12.1954
rtibia 51.4818
rfoot -21.7627 -2.79907
rtoes -9.44501
lfemur 1.68955 5.16021 -20.841
ltibia 36.2798
lfoot -21.1782 -2.51667
ltoes -33.3843
4025
root -0.0936455 16.9925 -6.24986 5.86542 17.7794 5.31617
lowerback 8.30159 -4.60357 -8.20876
upperback 0.303301 -6.75804 3.68923
thorax -2.92166 -3.24998 9.17464
lowerneck -20.0867 -5.07351 -10.9428
upperneck 21.6384 -5.96097 9.00792
head 10.9238 -2.5506 4.17832
rclavicle -2.48481e-014 -8.74653e-015
rhumerus -25.1736 9.23747 -82.551
rradius 134.634
rwrist -5.77222
rhand -19.2891 26.7521
rfingers 7.12502
rthumb 7.02606 -3.11133
lclavicle -2.48481e-014 -8.74653e-015
lhumerus -10.4993 -10.2973 91.4817
lradius 118.36
lwrist 2.0868
lhand -5.53906 5.97594
lfingers 7.12502
lthumb 20.2754 34.9377
rfemur -40.697 -2.10117 12.4816
rtibia 51.3278
rfoot -21.3994 -5.51234
rtoes -7.18365
lfemur 1.55804 5.05846 -20.9985
ltibia 36.0453
lfoot -20.1594 -3.01321
ltoes -33.4612
4026
root -0.0931233 17.0497 -6.27417 5.91152 16.966 5.30273
lowerback 8.15199 -4.52851 -8.03824
upperback 0.266155 -6.63525 3.59669
thorax -2.93435 -3.18847 8.95676
lowerneck -20.1478 -5.05884 -10.9543
upperneck 21.7945 -5.94128 9.009
head 10.9912 -2.54192 4.18735
rclavicle -1.01579e-013 2.62396e-014
rhumerus -26.2644 8.97536 -82.7683
rradius 134.673
rwrist -4.93834
rhand -19.0344 26.6729
rfingers 7.12502
rthumb 7.27192 -3.18216
lclavicle -1.01579e-013 2.62396e-014
lhumerus -10.4608 -10.1394 91.0346
lradius 118.665
lwrist 2.15945
lhand -5.9368 5.34217
lfingers 7.12502
lthumb 19.8931 34.344
rfemur -40.6871 -2.87566 12.7578
rtibia 51.4062
rfoot -20.7353 -7.96868
rtoes -3.43493
lfemur 1.44215 5.04448 -21.1298
ltibia 35.8678
lfoot -19.2811 -3.50488
ltoes -33.7298
4027
root -0.094604 17.0986 -6.29901 5.88998 16.1082 5.23872
lowerback 8.21922 -4.42748 -7.83098
upperback 0.15139 -6.49011 3.54349
thorax -3.15276 -3.10154 8.78889
lowerneck -20.3433 -5.02864 -10.9876
upperneck 22.1314 -5.86297 8.91212
head 11.1423 -2.51796 4.17667
rclavicle -1.68967e-014 2.70347e-014
rhumerus -27.4789 8.76232 -82.9573
rradius 134.655
rwrist -4.02743
rhand -19.0451 26.8843
rfingers 7.12502
rthumb 7.26162 -2.97112
lclavicle -1.68967e-014 2.70347e-014
lhumerus -10.5531 -9.883 90.6584
lradius 119.006
lwrist 1.98189
lhand -6.13213 5.31828
lfingers 7.12502
lthumb 19.7053 34.3395
rfemur -40.7376 -3.4617 13.0272
rtibia 51.7372
rfoot -20.2929 -10.1855
rtoes 1.90142
lfemur 1.37738 5.01608 -21.1675
ltibia 35.7421
lfoot -18.4773 -4.09874
ltoes -33.2711
4028
root -0.0991319 17.1406 -6.3238 5.80778 15.2532 5.18101
lowerback 8.15446 -4.27823 -7.80945
upperback 0.227107 -6.2812 3.58851
thorax -3.07647 -3.00449 8.80002
lowerneck -20.6324 -5.04333 -11.1234
upperneck 22.2687 -5.79555 8.83874
head 11.2433 -2.50211 4.18468
rclavicle 4.05521e-014 -7.95139e-016
rhumerus -28.1802 8.53723 -82.8364
rradius 134.495
rwrist -3.14697
rhand -19.1155 27.0123
rfingers 7.12502
rthumb 7.19367 -2.84545
lclavicle 4.05521e-014 -7.95139e-016
lhumerus -10.3048 -9.5744 90.3501
lradius 119.365
lwrist 1.92279
lhand -6.30363 5.33062
lfingers 7.12502
lthumb 19.5405 34.3687
rfemur -40.8159 -3.99334 13.2354
rtibia 52.3243
rfoot -20.2013 -12.2117
rtoes 6.31491
lfemur 1.34226 4.7934 -21.2098
ltibia 35.6615
lfoot -17.7951 -4.61163
ltoes -32.5445
4029
root -0.102383 17.1734 -6.35219 5.71138 14.321 5.13369
lowerback 8.08291 -4.09085 -7.7344
upperback 0.343604 -6.01719 3.57292
thorax -2.97705 -2.88317 8.70879
lowerneck -20.8055 -5.04464 -11.1986
upperneck 22.2523 -5.74113 8.80055
head 11.2653 -2.48467 4.19043
rclavicle 4.81059e-014 -1.35174e-014
rhumerus -28.6823 8.29495 -82.72
rradius 134.341
rwrist -2.56899
rhand -19.1531 27.2252
rfingers 7.12502
rthumb 7.15738 -2.63378
lclavicle 4.81059e-014 -1.35174e-014
lhumerus -9.96728 -9.2538 89.9041
lradius 119.821
lwrist 2.06354
lhand -6.31196 5.86945
lfingers 7.12502
lthumb 19.5324 34.9083
rfemur -40.9766 -4.41005 13.3327
rtibia 53.1426
rfoot -19.7767 -13.9621
rtoes 8.40294
lfemur 1.33068 4.36471 -21.3377
ltibia 35.5927
lfoot -17.2907 -4.93428
ltoes -32.5867
4030
root -0.103485 17.1957 -6.38094 5.5828 13.3386 5.08098
lowerback 8.2541 -3.93156 -7.50151
upperback 0.309229 -5.79828 3.47192
thorax -3.18724 -2.76354 8.47257
lowerneck -20.9197 -4.96539 -11.167
upperneck 22.3445 -5.60796 8.71054
head 11.3019 -2.43102 4.17501
rclavicle 2.18663e-015 8.74653e-015
rhumerus -29.4611 8.20185 -82.7714
rradius 134.313
rwrist -2.36431
rhand -19.1296 27.4821
rfingers 7.12502
rthumb 7.18003 -2.37605
lclavicle 2.18663e-015 8.74653e-015
lhumerus -9.82289 -8.80792 89.3208
lradius 120.369
lwrist 2.267
lhand -6.28968 6.76493
lfingers 7.12502
lthumb 19.5539 35.8016
rfemur -41.152 -4.72017 13.3475
rtibia 54.1656
rfoot -19.14 -15.2271
rtoes 11.4014
lfemur 1.39946 3.78298 -21.503
ltibia 35.5029
lfoot -16.9103 -5.28246
ltoes -32.8058
4031
root -0.105034 17.2119 -6.40995 5.41021 12.3443 5.0111
lowerback 8.28816 -3.73167 -7.25029
upperback 0.419046 -5.51158 3.35823
thorax -3.18214 -2.6276 8.18351
lowerneck -21.0846 -4.92902 -11.1619
upperneck 22.3102 -5.53085 8.68739
head 11.3105 -2.39476 4.17649
rclavicle -6.93758e-014 -7.15625e-015
rhumerus -29.8803 8.01994 -82.7821
rradius 134.26
rwrist -2.22941
rhand -19.2082 27.3632
rfingers 7.12502
rthumb 7.10416 -2.49762
lclavicle -6.93758e-014 -7.15625e-015
lhumerus -9.47381 -8.49463 88.6586
lradius 120.943
lwrist 2.55802
lhand -6.46446 7.55998
lfingers 7.12502
lthumb 19.3858 36.6136
rfemur -41.325 -4.96044 13.3395
rtibia 55.3346
rfoot -18.706 -16.1177
rtoes 15.5584
lfemur 1.53523 3.05314 -21.6821
ltibia 35.411
lfoot -16.7339 -5.60151
ltoes -32.7754
4032
root -0.104663 17.2145 -6.44152 5.26525 11.4386 5.00628
lowerback 8.41039 -3.58782 -7.01909
upperback 0.474631 -5.30802 3.24765
thorax -3.2624 -2.52658 7.92613
lowerneck -21.1337 -4.86996 -11.275
upperneck 22.2065 -5.40813 8.72829
head 11.2714 -2.34248 4.22851
rclavicle -1.90833e-014 2.14687e-014
rhumerus -30.1109 7.93103 -82.7728
rradius 134.108
rwrist -2.1321
rhand -19.2968 27.1291
rfingers 7.12502
rthumb 7.01867 -2.7345
lclavicle -1.90833e-014 2.14687e-014
lhumerus -9.23985 -8.05355 87.9774
lradius 121.527
lwrist 2.8821
lhand -6.63147 8.10044
lfingers 7.12502
lthumb 19.2252 37.1702
rfemur -41.5683 -5.42267 13.3142
rtibia 56.6157
rfoot -17.9517 -16.9772
rtoes 16.5956
lfemur 1.67568 2.17264 -21.9467
ltibia 35.3181
lfoot -16.716 -5.93227
ltoes -32.1361
4033
root -0.102301 17.2015 -6.4727 5.09119 10.5807 4.9198
lowerback 8.46395 -3.49384 -6.74195
upperback 0.658537 -5.15678 3.21726
thorax -3.154 -2.46592 7.71824
lowerneck -21.5566 -4.79455 -11.3156
upperneck 22.1922 -5.20069 8.59647
head 11.3195 -2.25907 4.21784
rclavicle -1.86858e-014 -1.59028e-014
rhumerus -29.9799 7.98649 -82.6048
rradius 133.9
rwrist -2.2033
rhand -19.4666 26.9293
rfingers 7.12502
rthumb 6.85476 -2.93976
lclavicle -1.86858e-014 -1.59028e-014
lhumerus -8.82177 -7.38288 87.261
lradius 122.087
lwrist 3.19214
lhand -6.7414 8.37373
lfingers 7.12502
lthumb 19.1195 37.454
rfemur -41.8002 -5.9397 13.357
rtibia 57.9776
rfoot -17.2847 -17.5785
rtoes 16.3808
lfemur 1.84082 1.27444 -22.0992
ltibia 35.219
lfoot -16.6188 -6.57933
ltoes -29.7763
